<?xml version="1.0" encoding="utf-8"?>
<!-- Generator: Adobe Illustrator 27.5.0, SVG Export Plug-In . SVG Version: 6.00 Build 0)  -->
<svg version="1.1" id="Layer_1" xmlns="http://www.w3.org/2000/svg" xmlns:xlink="http://www.w3.org/1999/xlink" x="0px" y="0px"
	 viewBox="0 0 450 450" style="enable-background:new 0 0 450 450;" xml:space="preserve">
<g>
	<rect style="fill:#2B5B69;" width="450" height="450"/>
	<g>
		<path style="fill:#FFFFFF;" d="M70.516,98.644h-3.378V82.311l-5.083,16.333h-2.108l-5.083-16.335v16.335h-3.378V73.85h4.089
			l5.426,16.812l5.426-16.812h4.088V98.644z"/>
		<path style="fill:#FFFFFF;" d="M96.209,95.142l-3.533,3.502H78.45l-3.533-3.502v-17.79l3.533-3.502h14.226l3.533,3.502V95.142z
			 M92.831,93.733V78.805l-1.546-1.577H79.796l-1.501,1.532v14.928l1.546,1.577H91.33L92.831,93.733z"/>
		<path style="fill:#FFFFFF;" d="M117.438,95.11l-3.564,3.533h-13.761V73.85h13.761l3.564,3.533v6.136l-2.356,2.324l2.356,2.356
			V95.11z M114.06,82.107v-3.273l-1.576-1.607h-8.992v7.5h7.956L114.06,82.107z M114.06,93.703v-4.061l-1.492-1.535h-9.077v7.159
			h9.036L114.06,93.703z"/>
		<path style="fill:#FFFFFF;" d="M124.628,98.644h-3.378V73.85h3.378V98.644z"/>
		<path style="fill:#FFFFFF;" d="M141.581,98.644h-12.397V73.85h3.378v21.416h9.019V98.644z"/>
		<path style="fill:#FFFFFF;" d="M158.286,98.644h-12.955V73.85h12.955v3.378h-9.577v7.004h7.314v3.378h-7.314v7.655h9.577V98.644z"
			/>
		<path style="fill:#FFFFFF;" d="M51.89,114.419H46.25v21.415h-3.378v-21.415H37.23v-3.379h14.66V114.419z"/>
		<path style="fill:#FFFFFF;" d="M73.956,120.772l-3.533,3.502h-3.756l6.663,11.56h-3.438l-6.659-11.56h-4.215v11.56H55.64V111.04
			h14.784l3.533,3.533V120.772z M70.578,119.364v-3.392l-1.555-1.554H59.018v6.477h10.103L70.578,119.364z"/>
		<path style="fill:#FFFFFF;" d="M98.936,135.834h-3.56l-2.517-6.942h-9.415l-2.517,6.942h-3.594l8.988-24.794h3.626L98.936,135.834
			z M91.602,125.514l-3.45-9.516l-3.449,9.516H91.602z"/>
		<path style="fill:#FFFFFF;" d="M119.328,132.301l-3.564,3.533h-13.761V111.04h13.761l3.564,3.533V132.301z M115.95,130.893
			v-14.868l-1.576-1.606h-8.992v18.038h9.036L115.95,130.893z"/>
		<path style="fill:#FFFFFF;" d="M126.611,135.834h-3.378V111.04h3.378V135.834z"/>
		<path style="fill:#FFFFFF;" d="M148.306,135.834h-3.378l-10.382-17.975v17.975h-3.378V111.04h3.376l10.385,18.041V111.04h3.378
			V135.834z"/>
		<path style="fill:#FFFFFF;" d="M173.006,132.332l-3.533,3.502h-13.079l-3.533-3.502v-17.789l3.533-3.503h13.079l3.533,3.503
			l-2.411,2.411l-2.513-2.535h-10.341l-1.501,1.532v14.928l1.546,1.577h10.341l1.501-1.532v-4.388h-3.812v-3.378h7.19V132.332z"/>
	</g>
	<g>
		<g>
			<polygon style="opacity:0.3;" points="159.91,394.987 53.916,333.792 192.127,254.001 298.113,315.191 			"/>
			<polygon style="fill:#FFFFFF;" points="159.91,392.806 53.916,331.611 192.127,251.811 298.113,313.006 			"/>
			<g>
				<polygon style="fill:#FBE979;" points="147.253,316.51 147.253,316.51 147.253,298.745 159.844,298.745 177.868,309.143 				"/>
				<polygon style="fill:#EB5C44;" points="177.868,309.143 177.868,323.862 159.848,334.257 134.364,334.264 147.253,316.51 				
					"/>
				<polygon style="fill:#FFC654;" points="147.253,316.51 147.253,316.51 134.364,334.264 116.348,323.862 116.344,309.143 
					134.364,298.745 147.253,298.745 				"/>
			</g>
			<polygon style="fill:#F4EFE9;" points="174.933,370.544 92.464,322.935 96.189,320.782 178.661,368.393 			"/>
			<polygon style="fill:#F4EFE9;" points="166.648,375.336 84.173,327.72 87.905,325.569 170.372,373.185 			"/>
			<polygon style="fill:#F4EFE9;" points="124.325,360.474 75.885,332.505 79.613,330.354 128.051,358.322 			"/>
			<g>
				<polygon style="fill:#BAF3FF;" points="239.843,333.077 157.37,285.458 193.722,264.471 276.19,312.086 				"/>
				<g>
					<polygon style="fill:#FDB053;" points="198.91,271.413 193.942,268.539 192.487,268.845 191.089,269.65 190.566,270.489 
						195.536,273.355 196.984,273.055 198.385,272.249 					"/>
					<polygon style="fill:#EB5C44;" points="193.202,274.712 188.229,271.84 186.775,272.14 185.375,272.944 184.851,273.793 
						189.823,276.657 191.272,276.352 192.67,275.548 					"/>
				</g>
				<polygon style="fill:#EB5C44;" points="157.37,285.458 204.044,291.601 213.092,298.287 238.989,299.8 246.113,310.383 
					276.19,312.086 268.235,316.68 240.569,327.256 				"/>
				<polygon style="fill:#FDB053;" points="157.37,285.458 184.558,286.097 203.37,302.583 238.536,311.513 246.824,318.864 
					268.235,316.68 257.865,322.667 239.843,333.077 				"/>
				<polygon style="fill:#FBE979;" points="157.37,285.458 174.361,292.077 184.851,291.59 212.804,310.527 238.087,320.784 
					257.865,322.667 239.843,333.077 				"/>
			</g>
			<g>
				<polygon style="fill:#FDB053;" points="200.55,343.905 181.773,333.064 178.429,333.762 175.202,335.625 173.987,337.553 
					192.766,348.396 196.106,347.697 199.326,345.831 				"/>
				<g>
					<polygon style="fill:#FBE979;" points="213.721,336.3 194.946,325.459 191.601,326.158 188.375,328.02 187.158,329.95 
						205.94,340.795 209.277,340.09 212.5,338.226 					"/>
				</g>
				<polygon style="fill:#EB5C44;" points="187.378,351.509 168.599,340.666 165.251,341.371 162.026,343.235 160.811,345.16 
					179.584,356.006 182.931,355.3 186.155,353.44 				"/>
			</g>
		</g>
		<g>
			<polygon style="opacity:0.3;" points="138.738,308.052 32.968,246.981 170.888,167.354 276.662,228.421 			"/>
			<polygon style="fill:#FFFFFF;" points="138.738,306.733 32.968,245.666 170.888,166.035 276.662,227.104 			"/>
			<g>
				<polygon style="fill:#DDE65C;" points="211.274,226.123 211.274,226.123 189.563,238.657 180.675,233.527 180.675,218.848 				
					"/>
				<polygon style="fill:#EB5C44;" points="180.675,218.848 198.655,208.46 224.082,208.46 242.069,218.848 211.274,226.123 				"/>
				<polygon style="fill:#FFC654;" points="211.274,226.123 211.274,226.123 242.069,218.848 242.069,233.527 224.086,243.909 
					198.655,243.909 189.563,238.657 				"/>
			</g>
			<g>
				<polygon style="fill:#DDE65C;" points="176.925,234.949 165.873,228.573 163.828,228.573 162.382,229.404 162.382,230.591 
					173.432,236.966 175.479,236.966 176.923,236.133 				"/>
				<polygon style="fill:#FFC654;" points="171.018,238.362 159.964,231.983 157.917,231.983 156.472,232.82 156.472,234 
					167.521,240.375 169.568,240.375 171.014,239.543 				"/>
				<polygon style="fill:#EB5C44;" points="165.107,241.775 154.057,235.39 152.005,235.398 150.564,236.23 150.564,237.414 
					161.61,243.791 163.662,243.791 165.107,242.956 				"/>
			</g>
			<g>
				<path style="fill:#EB5C44;" d="M168.144,187.381l-6.138,3.54v5.006l2.888,1.667l-5.372,3.103l-5.112-2.956v-8.639l10.585-6.11
					L168.144,187.381z"/>
				<polygon style="fill:#DDE65C;" points="164.996,182.992 179.967,182.992 190.554,189.102 182.958,190.921 176.82,187.381 
					168.144,187.381 				"/>
				<polygon style="fill:#FFC654;" points="164.894,197.595 168.144,199.471 176.82,199.471 182.958,195.927 182.958,190.921 
					190.554,189.102 190.554,197.741 179.967,203.86 164.996,203.86 159.522,200.697 				"/>
				<path style="fill:#FFC654;" d="M178.699,191.934l-3.644-2.101h-5.15l-3.638,2.101v2.977l3.642,2.104l5.148-0.004l3.642-2.1
					V191.934z"/>
			</g>
			<g>
				<path style="fill:#CCA7CF;" d="M146.681,216.875v-5.012l-6.135-3.543h-4.081v-4.389h7.228l10.581,6.116v8.642L146.681,216.875z"
					/>
				<polygon style="fill:#DDE65C;" points="154.274,218.689 143.693,224.798 128.719,224.798 131.87,220.418 140.546,220.418 
					146.681,216.875 				"/>
				<polygon style="fill:#389998;" points="136.465,208.32 131.87,208.32 125.733,211.863 125.733,216.875 131.87,220.418 
					128.719,224.798 118.14,218.689 118.136,210.047 128.719,203.931 136.465,203.931 				"/>
				<path style="fill:#389998;" d="M133.629,217.958h5.151l3.642-2.102v-2.973l-3.642-2.102h-5.151l-3.639,2.102l-0.003,2.973
					L133.629,217.958z"/>
			</g>
			<polygon style="fill:#CCA7CF;" points="208.264,253.043 181.689,237.705 166.381,246.54 192.948,261.884 			"/>
			<polygon style="fill:#F4EFE9;" points="180.572,269.029 98.273,221.516 101.993,219.364 184.292,266.883 			"/>
			<polygon style="fill:#F4EFE9;" points="172.3,273.808 90.002,226.292 93.72,224.142 176.019,271.657 			"/>
			<polygon style="fill:#F4EFE9;" points="130.067,258.978 81.729,231.069 85.447,228.922 133.789,256.832 			"/>
			<g>
				<polygon style="fill:#BAF3FF;" points="137.049,294.155 54.75,246.639 76.414,234.134 158.714,281.649 				"/>
				<g>
					<polygon style="fill:#FBE979;" points="82.491,240.543 77.527,237.675 76.605,237.675 75.955,238.049 75.955,238.579 
						80.921,241.448 81.84,241.448 82.491,241.073 					"/>
					<polygon style="fill:#FDB053;" points="79.836,242.075 74.869,239.209 73.951,239.209 73.298,239.58 73.298,240.111 
						78.267,242.982 79.185,242.982 79.836,242.605 					"/>
					<polygon style="fill:#EB5C44;" points="77.18,243.613 72.215,240.74 71.294,240.74 70.643,241.119 70.643,241.648 
						75.61,244.515 76.527,244.515 77.18,244.143 					"/>
				</g>
				<polygon style="fill:#EB5C44;" points="54.75,246.639 96.488,255.561 106.196,261.847 125.833,266.936 135.933,275.774 
					158.714,281.649 155.019,283.786 134.901,290.018 				"/>
				<polygon style="fill:#FDB053;" points="54.75,246.639 79.699,248.538 101.069,263.492 130.908,275.43 140.363,282.081 
					155.019,283.786 150.195,286.57 132.093,290.1 				"/>
				<polygon style="fill:#FBE979;" points="54.75,246.639 86.599,256.164 93.685,264.688 115.988,273.133 127.217,281.317 
					150.195,286.57 137.049,294.155 				"/>
			</g>
		</g>
		<g>
			<g>
				<polygon style="opacity:0.3;" points="227.252,192.697 211.569,183.646 141.265,224.241 142.713,225.085 139.187,227.109 
					135.04,233.757 135.156,233.831 134.036,234.491 133.003,235.079 129.862,237.642 128.623,240.134 128.633,240.134 
					128.633,240.134 128.646,240.134 132.935,239.417 137.352,237.564 138.384,236.954 139.485,236.31 139.786,236.497 
					151.297,234.093 154.802,232.071 156.934,233.296 				"/>
				<g>
					<polygon style="fill:#AB281F;" points="227.432,185.142 225.041,187.493 224.075,184.897 220.897,180.864 224.59,180.2 					
						"/>
					<polygon style="fill:#8A1C14;" points="227.432,189.786 225.532,190.87 224.168,187.493 225.532,186.23 227.432,185.142 					
						"/>
					<path style="fill:#C84030;" d="M222.686,181.299l-12.089-6.988l-2.85,1.655v4.658l2.85,4.936l12.089,6.97l2.846-1.66v-4.64
						L222.686,181.299z"/>
					<polygon style="fill:#FA5C52;" points="222.686,181.299 210.597,174.311 212.487,173.23 224.59,180.2 					"/>
				</g>
				<g>
					<path style="fill:#685750;" d="M156.962,231.358l-12.532-7.242l-3.165-5.476v-5.153l3.165-1.836l12.532,7.233l3.156,5.486
						v5.153L156.962,231.358z"/>
					<polygon style="fill:#836E69;" points="222.629,180.961 201.097,197.379 156.962,218.885 144.43,211.652 210.097,173.739 					
						"/>
					<polygon style="fill:#A39685;" points="216.645,181.499 196.675,193.021 193.857,191.4 213.813,179.872 					"/>
					<polygon style="fill:#362C29;" points="225.791,191.61 160.119,229.524 160.119,224.372 198.08,199.232 225.791,186.455 					
						"/>
					<polygon style="fill:#685750;" points="225.791,186.455 160.119,224.372 156.962,218.885 222.629,180.961 					"/>
				</g>
				<g>
					<polygon style="fill:#AB281F;" points="159.581,224.3 157.198,226.658 156.243,224.073 153.059,220.034 156.728,219.38 					
						"/>
					<polygon style="fill:#8A1C14;" points="159.581,228.971 157.696,230.056 156.321,226.658 157.696,225.401 159.581,224.3 					
						"/>
					<path style="fill:#C84030;" d="M154.837,220.461l-12.083-6.974l-2.852,1.642v4.653l2.852,4.94l12.083,6.987l2.858-1.654v-4.655
						L154.837,220.461z"/>
					<polygon style="fill:#FA5C52;" points="154.837,220.461 142.754,213.488 144.643,212.391 156.728,219.38 					"/>
				</g>
				<g>
					<g>
						<polygon style="fill:#8A1C14;" points="154.837,228.408 151.297,230.456 148.487,224.931 154.837,223.755 						"/>
						<polygon style="fill:#C84030;" points="139.786,232.862 135.04,230.118 135.04,225.465 142.879,226.342 						"/>
						<polygon style="fill:#AB281F;" points="151.297,230.456 139.786,232.862 139.786,228.191 144.43,224.488 151.297,225.805 
													"/>
						<polygon style="fill:#FA5C52;" points="142.742,216.77 139.187,218.817 135.04,225.465 139.786,228.191 151.297,225.805 
							154.837,223.755 						"/>
					</g>
					<g>
						<g>
							<polygon style="fill:#C84030;" points="133.944,228.594 130.524,231.421 128.623,234.561 135.413,228.531 134.982,227.975 
															"/>
							<polygon style="fill:#C84030;" points="128.623,234.561 132.29,234.466 136.455,232.898 137.497,232.308 137.226,231.655 
															"/>
							<polygon style="fill:#FA7871;" points="134.982,227.975 131.257,231.007 128.623,234.561 132.113,231.733 133.197,231.524 
								134.394,230.899 135.454,229.852 136.915,229.616 138.16,227.828 136.68,226.984 							"/>
							<polygon style="fill:#FA5C52;" points="136.441,228.822 132.277,231.595 128.623,234.561 131.523,233.895 132.71,233.071 
								133.763,232.843 135.419,232.337 136.249,231.655 137.48,230.976 139.187,229.616 138.16,227.828 							"/>
							<polygon style="fill:#C84030;" points="128.623,234.561 133.01,234.036 133.01,234.036 137.497,232.308 139.191,231.311 
								139.187,229.616 137.48,230.608 133.01,232.843 							"/>
						</g>
					</g>
				</g>
			</g>
			<g>
				<polygon style="opacity:0.3;" points="105.911,206.878 79.646,222.047 95.325,231.083 121.598,215.926 				"/>
				<g>
					<path style="fill:#685750;" d="M96.696,228.445l-12.531-7.219l-3.157-5.474v-5.169l3.157-1.823l12.531,7.218l3.16,5.482v5.176
						L96.696,228.445z"/>
					<polygon style="fill:#836E69;" points="117.2,204.156 106.846,212.674 96.696,215.978 84.165,208.76 104.66,196.925 					"/>
					<polygon style="fill:#362C29;" points="120.345,214.801 99.856,226.637 99.856,221.46 110.388,213.475 120.345,209.635 					
						"/>
					<polygon style="fill:#685750;" points="120.345,209.635 99.856,221.46 96.696,215.978 117.2,204.156 					"/>
				</g>
				<g>
					<polygon style="fill:#AB281F;" points="99.33,221.423 96.945,223.755 95.977,221.167 92.803,217.129 96.471,216.479 					"/>
					<polygon style="fill:#8A1C14;" points="99.33,226.064 97.439,227.154 96.067,223.755 97.439,222.504 99.33,221.423 					"/>
					<path style="fill:#C84030;" d="M94.591,217.562l-12.098-6.979l-2.848,1.645v4.669l2.848,4.929l12.098,6.981l2.848-1.652v-4.65
						L94.591,217.562z"/>
					<polygon style="fill:#FA5C52;" points="94.591,217.562 82.494,210.583 84.391,209.495 96.471,216.479 					"/>
				</g>
			</g>
		</g>
		<g>
			<polygon style="opacity:0.3;" points="155.053,362.369 230.855,406.071 232.357,406.935 232.242,407.162 234.961,408.728 
				236.342,409.522 235.627,411.061 233.238,412.441 230.566,412.856 229.184,412.065 226.477,410.5 226.08,410.556 
				224.577,409.699 148.782,366 140.225,357.501 			"/>
			<g>
				<polygon style="fill:#836E69;" points="143.627,356.017 144.262,355.282 140.225,354.229 				"/>
				<polygon style="fill:#403531;" points="143.174,357.157 143.514,356.245 140.225,354.229 				"/>
				<polygon style="fill:#685750;" points="143.174,356.424 143.545,356.424 143.627,355.649 140.225,354.229 				"/>
				<polygon style="fill:#EFC58B;" points="150.071,364.042 153.594,361.367 153.692,357.763 149.915,357.124 143.627,355.649 
					143.174,356.424 147.922,360.666 				"/>
				<polygon style="fill:#C79D5C;" points="150.071,364.042 150.071,361.588 143.174,356.424 143.174,357.157 				"/>
				<polygon style="fill:#F7E6BB;" points="151.571,358.984 153.692,357.763 144.262,355.282 143.627,355.649 				"/>
			</g>
			<g>
				<polygon style="fill:#785B56;" points="216.926,400.19 218.418,397.588 220.547,396.357 222.053,397.228 222.053,399.684 
					220.547,402.277 218.418,403.509 216.926,402.636 				"/>
				<polygon style="fill:#8CCCCB;" points="218.418,397.588 220.547,396.357 153.692,357.763 151.571,358.984 218.141,397.62 				
					"/>
				<polygon style="fill:#389998;" points="216.926,400.19 218.418,397.588 151.571,358.984 150.071,361.588 216.657,400.304 				
					"/>
				<polygon style="fill:#3E6669;" points="216.926,402.636 216.926,400.19 150.071,361.588 150.071,364.042 				"/>
			</g>
			<g>
				<polygon style="fill:#D8D1C7;" points="225.813,405.319 227.309,402.719 229.438,401.487 230.938,402.358 230.938,404.816 
					229.438,407.409 227.309,408.631 225.813,407.767 				"/>
				<polygon style="fill:#E6E1DD;" points="227.309,402.719 229.438,401.487 220.547,396.357 218.418,397.58 227.027,402.742 				
					"/>
				<polygon style="fill:#D1D1D1;" points="225.813,405.319 227.309,402.719 218.418,397.58 216.926,400.19 225.543,405.427 				"/>
				<polygon style="fill:#A39C95;" points="225.813,407.767 225.813,405.319 216.926,400.19 216.926,402.636 				"/>
			</g>
			<g>
				<polygon style="fill:#C26A5E;" points="230.301,407.776 231.688,405.385 233.646,404.252 235.029,405.052 235.029,407.31 
					233.646,409.699 231.688,410.827 230.301,410.027 				"/>
				<polygon style="fill:#FCA48F;" points="231.688,405.385 233.646,404.252 229.551,401.902 227.602,403.027 231.426,405.412 				
					"/>
				<polygon style="fill:#D57A70;" points="230.301,407.776 231.688,405.385 227.602,403.027 226.225,405.427 230.064,407.891 				
					"/>
				<polygon style="fill:#A6495D;" points="230.301,410.027 230.301,407.776 226.225,405.427 226.225,407.678 				"/>
			</g>
			<g>
				<polygon style="fill:#FDD293;" points="210.786,393.176 212.905,391.952 209.643,390.06 207.514,391.284 210.507,393.207 				
					"/>
				<polygon style="fill:#FDB053;" points="209.284,395.776 210.786,393.176 207.514,391.284 206.022,393.894 209.015,395.901 				
					"/>
				<polygon style="fill:#FF8E1C;" points="209.284,398.234 209.284,395.776 206.022,393.894 206.022,396.34 				"/>
			</g>
		</g>
		<g>
			<polygon style="opacity:0.3;" points="295.857,350.742 281.496,342.447 273.568,342.447 267.959,345.689 267.959,350.262 
				282.326,358.555 290.254,358.555 295.857,355.319 			"/>
			<polygon style="fill:#F7EDD4;" points="281.496,337.121 273.625,337.121 268.07,340.337 268.07,344.884 			"/>
			<polygon style="fill:#C7AE87;" points="295.752,354.966 290.185,358.182 289.252,352.423 293.484,350.575 295.752,349.893 			"/>
			<polygon style="fill:#C84030;" points="282.317,358.182 268.07,349.958 268.07,344.884 278.765,349.359 282.317,353.1 			"/>
			<polygon style="fill:#EFCFA3;" points="290.185,358.182 282.317,358.182 282.317,353.1 287.265,351.484 290.185,353.1 			"/>
			<polygon style="fill:#F7EDD4;" points="282.317,353.1 290.185,353.1 295.752,349.893 295.752,345.353 			"/>
			<polygon style="fill:#FA5C52;" points="282.317,353.1 268.07,344.884 281.496,337.121 295.752,345.353 			"/>
			<polygon style="fill:#836E69;" points="278.632,347.795 272.916,344.486 272.235,344.486 271.752,344.762 271.752,345.166 
				277.474,348.459 278.154,348.459 278.632,348.185 			"/>
		</g>
		<g>
			<g>
				<g>
					<polygon style="opacity:0.3;" points="169.21,288.241 202.651,268.939 260.517,302.339 227.071,321.647 					"/>
					<g>
						<polygon style="fill:#685750;" points="200.824,251.277 200.824,269.992 202.601,271.023 202.601,252.305 202.491,251.587 
													"/>
						<polygon style="fill:#403531;" points="202.601,252.305 202.601,271.023 204.431,269.962 204.431,251.247 203.1,251.27 						
							"/>
						<polygon style="fill:#403531;" points="200.824,251.277 202.651,250.218 204.431,251.247 202.601,252.305 						"/>
					</g>
					<g>
						<polygon style="fill:#685750;" points="169.21,269.528 169.21,288.247 170.99,289.272 170.99,270.552 170.885,269.839 						
							"/>
						<polygon style="fill:#403531;" points="170.99,270.552 170.99,289.272 172.823,288.213 172.823,269.496 171.493,269.522 
													"/>
						<polygon style="fill:#403531;" points="169.21,269.528 171.04,268.471 172.823,269.496 170.99,270.552 						"/>
					</g>
					<g>
						<polygon style="fill:#685750;" points="225.295,301.902 225.295,320.623 227.071,321.647 227.071,302.932 226.967,302.214 
													"/>
						<polygon style="fill:#403531;" points="227.071,302.932 227.071,321.647 228.903,320.589 228.903,301.871 227.571,301.897 
													"/>
						<polygon style="fill:#403531;" points="225.295,301.902 227.121,300.847 228.903,301.871 227.071,302.932 						"/>
					</g>
					<g>
						<polygon style="fill:#685750;" points="256.907,283.652 256.907,302.368 258.685,303.396 258.685,284.678 258.581,283.96 
													"/>
						<polygon style="fill:#403531;" points="258.685,284.678 258.685,303.396 260.517,302.339 260.517,283.622 259.189,283.645 
													"/>
						<polygon style="fill:#403531;" points="256.907,283.652 258.733,282.593 260.517,283.622 258.685,284.678 						"/>
					</g>
					<g>
						<polygon style="fill:#685750;" points="169.21,266.804 169.21,269.53 227.071,302.932 227.071,300.208 226.839,298.645 						
							"/>
						<polygon style="fill:#403531;" points="227.071,300.208 227.071,302.932 260.517,283.622 260.517,280.899 230.876,289.272 
													"/>
						<polygon style="fill:#836E69;" points="169.21,266.804 202.651,247.495 260.517,280.899 227.071,300.208 						"/>
					</g>
				</g>
				<g>
					<g>
						<polygon style="opacity:0.3;" points="197.852,273.99 195.824,273.507 193.795,273.99 192.987,275.118 193.795,276.335 
							195.827,276.822 197.856,276.335 198.645,275.1 						"/>
						<polygon style="fill:#898C55;" points="194.508,265.619 194.039,266.006 193.302,267.028 194.042,267.129 194.783,265.873 
							195.013,265.651 195.083,265.448 						"/>
						<polygon style="fill:#C3C270;" points="195.122,265.944 194.783,265.873 193.97,266.372 193.302,267.028 193.136,267.948 
							193.136,268.733 193.553,269.659 193.505,271.485 193.136,273.297 193.136,275.054 193.97,276.197 194.946,269.353 
							194.872,267.859 194.875,266.926 195.085,266.29 						"/>
						<polygon style="fill:#898C55;" points="196.47,268.344 196.192,267.173 195.818,266.477 195.603,265.98 195.085,266.29 
							194.512,267.129 194.044,268.054 193.927,269.041 193.97,276.197 195.818,276.726 196.528,274.168 						"/>
						<polygon style="fill:#66BBCC;" points="197.178,265.903 197.151,266.498 197.123,267.129 						"/>
						<polygon style="fill:#7C8552;" points="198.333,267.028 197.594,266.006 197.123,265.619 196.551,265.448 196.528,265.58 
							196.794,265.887 197.484,266.811 						"/>
						<polygon style="fill:#6A7147;" points="198.333,267.028 197.662,266.372 196.854,265.873 196.573,265.958 196.551,266.29 
							196.654,268.243 196.714,274.056 197.713,276.269 198.497,275.054 198.498,267.948 						"/>
						<polygon style="fill:#7C8552;" points="197.598,268.051 197.123,267.129 196.551,266.29 196.07,266.209 195.818,266.477 
							195.818,276.726 197.713,276.269 197.713,269.041 						"/>
						<polygon style="fill:#898C55;" points="196.549,265.448 195.818,265.272 195.083,265.448 194.783,265.873 195.085,266.29 
							195.818,266.477 196.551,266.29 196.854,265.873 						"/>
						<g>
							<polygon style="fill:#E3BD5E;" points="193.931,269.828 193.14,268.733 193.14,273.297 193.951,274.442 194.193,272.4 
															"/>
							<polygon style="fill:#CC934C;" points="197.715,269.828 195.822,270.279 195.342,271.595 195.822,274.98 197.715,274.529 
															"/>
							<polygon style="fill:#D6A950;" points="195.822,270.279 193.931,269.828 193.951,274.442 195.822,274.98 							"/>
						</g>
					</g>
					<g>
						<polygon style="fill:#898C55;" points="195.818,261.821 195.083,261.649 194.929,261.916 195.083,266.29 195.818,266.477 
							196.122,265.775 						"/>
						<polygon style="fill:#7C8552;" points="195.818,261.821 196.549,261.649 196.703,261.916 196.549,266.29 195.818,266.477 
													"/>
						<polygon style="fill:#E8F3FF;" points="196.549,260.799 195.813,260.627 195.083,260.799 194.778,261.223 195.083,261.649 
							195.818,261.821 196.549,261.649 196.854,261.22 						"/>
						<polygon style="fill:#6A7147;" points="196.549,261.649 196.854,261.223 196.854,265.873 196.549,266.29 						"/>
						<polygon style="fill:#C3C270;" points="195.083,261.649 194.778,261.223 194.778,265.873 195.083,266.29 						"/>
						<polygon style="opacity:0.3;" points="196.549,261.689 196.549,261.689 196.549,261.689 195.818,261.862 195.083,261.689 
							194.778,261.271 194.778,261.618 195.083,262.039 195.818,262.224 196.549,262.039 196.549,262.036 196.549,262.039 
							196.854,261.618 196.854,261.271 						"/>
					</g>
					<g>
						<polygon style="fill:#898C55;" points="195.818,261.034 195.013,260.843 194.847,261.136 195.013,261.749 195.818,261.94 
							196.151,261.172 						"/>
						<polygon style="fill:#7C8552;" points="195.818,261.034 196.621,260.843 196.787,261.136 196.621,261.749 195.818,261.94 
													"/>
						<polygon style="fill:#C3C270;" points="196.617,259.916 195.813,259.72 195.013,259.918 194.68,260.378 195.013,260.843 
							195.818,261.034 196.621,260.84 196.951,260.378 						"/>
						<polygon style="fill:#6A7147;" points="196.512,259.979 195.818,259.814 195.121,259.979 194.835,260.378 195.122,260.781 
							195.818,260.947 196.512,260.781 196.797,260.378 						"/>
						<polygon style="fill:#6A7147;" points="196.621,260.843 196.953,260.378 196.953,261.284 196.621,261.749 						"/>
						<polygon style="fill:#C3C270;" points="195.013,260.843 194.68,260.378 194.68,261.284 195.013,261.749 						"/>
					</g>
				</g>
				<g>
					<g>
						<polygon style="opacity:0.3;" points="204.634,272.626 202.607,272.142 200.577,272.626 199.772,273.749 200.579,274.967 
							202.613,275.454 204.638,274.967 205.428,273.729 						"/>
						<polygon style="fill:#944E39;" points="201.291,262.286 200.821,262.677 200.088,263.699 200.822,263.801 201.563,262.547 
							201.799,262.325 201.865,262.116 						"/>
						<polygon style="fill:#D18067;" points="201.907,262.618 201.563,262.547 200.752,263.036 200.088,263.699 199.917,264.615 
							199.917,265.402 200.335,266.328 200.291,268.153 199.917,271.929 199.917,273.684 200.752,274.83 201.731,266.018 
							201.657,264.522 201.659,263.593 201.867,262.965 						"/>
						<polygon style="fill:#944E39;" points="203.254,265.015 202.976,263.84 202.6,263.138 202.39,262.65 201.867,262.965 
							201.298,263.801 200.829,264.728 200.71,265.706 200.752,274.83 202.6,275.364 203.314,272.803 						"/>
						<polygon style="fill:#66BBCC;" points="203.961,262.576 203.937,263.167 203.908,263.796 						"/>
						<polygon style="fill:#853E2A;" points="205.115,263.699 204.375,262.677 203.908,262.286 203.335,262.116 203.314,262.245 
							203.579,262.558 204.27,263.482 						"/>
						<polygon style="fill:#693121;" points="205.115,263.699 204.449,263.036 203.635,262.547 203.358,262.625 203.335,262.965 
							203.438,264.912 203.496,272.686 204.497,274.902 205.28,273.684 205.284,264.615 						"/>
						<polygon style="fill:#853E2A;" points="204.379,264.728 203.908,263.796 203.335,262.965 202.855,262.876 202.6,263.138 
							202.6,275.364 204.497,274.902 204.497,265.706 						"/>
						<polygon style="fill:#853E2A;" points="203.334,262.116 202.598,261.939 201.867,262.116 201.563,262.547 201.867,262.965 
							202.6,263.138 203.335,262.965 203.635,262.547 						"/>
						<g>
							<polygon style="fill:#FFFFFF;" points="200.714,266.498 199.921,265.402 199.921,271.929 200.733,273.079 200.976,271.038 
															"/>
							<polygon style="fill:#D1D1D1;" points="204.501,266.498 202.604,266.95 202.125,270.227 202.604,273.612 204.501,273.159 
															"/>
							<polygon style="fill:#F4EFE9;" points="202.604,266.95 200.714,266.498 200.733,273.079 202.604,273.612 							"/>
						</g>
					</g>
					<g>
						<polygon style="fill:#944E39;" points="202.598,258.493 201.867,258.317 201.713,258.587 201.867,262.965 202.598,263.138 
							202.905,262.441 						"/>
						<polygon style="fill:#853E2A;" points="202.598,258.493 203.334,258.317 203.484,258.587 203.334,262.965 202.598,263.138 
													"/>
						<polygon style="fill:#E8F3FF;" points="203.334,257.471 202.597,257.292 201.865,257.471 201.56,257.892 201.867,258.317 
							202.598,258.493 203.334,258.317 203.635,257.89 						"/>
						<polygon style="fill:#693121;" points="203.334,258.317 203.635,257.892 203.635,262.547 203.334,262.965 						"/>
						<polygon style="fill:#D18067;" points="201.867,258.317 201.56,257.892 201.56,262.547 201.867,262.965 						"/>
						<polygon style="opacity:0.3;" points="203.334,258.362 203.334,258.362 203.334,258.362 202.598,258.536 201.867,258.362 
							201.56,257.933 201.56,258.294 201.867,258.711 202.598,258.887 203.334,258.711 203.334,258.711 203.334,258.711 
							203.635,258.294 203.635,257.933 						"/>
					</g>
					<g>
						<polygon style="fill:#944E39;" points="202.598,257.701 201.799,257.507 201.63,257.81 201.799,258.424 202.598,258.607 
							202.934,257.846 						"/>
						<polygon style="fill:#853E2A;" points="202.598,257.701 203.403,257.507 203.571,257.81 203.403,258.424 202.598,258.607 
													"/>
						<polygon style="fill:#D18067;" points="203.397,256.58 202.597,256.389 201.797,256.585 201.463,257.052 201.799,257.507 
							202.598,257.701 203.403,257.507 203.735,257.052 						"/>
						<polygon style="fill:#693121;" points="203.292,256.643 202.598,256.479 201.904,256.647 201.622,257.052 201.907,257.443 
							202.6,257.61 203.298,257.443 203.581,257.052 						"/>
						<polygon style="fill:#693121;" points="203.404,257.507 203.735,257.052 203.735,257.955 203.404,258.424 						"/>
						<polygon style="fill:#D18067;" points="201.799,257.507 201.463,257.052 201.463,257.955 201.799,258.424 						"/>
					</g>
				</g>
				<g>
					<g>
						<polygon style="opacity:0.3;" points="187.922,260.601 185.895,260.116 183.865,260.601 183.061,261.723 183.867,262.941 
							185.901,263.429 187.926,262.941 188.716,261.704 						"/>
						<polygon style="fill:#944E39;" points="184.579,250.261 184.108,250.651 183.376,251.673 184.11,251.775 184.852,250.521 
							185.086,250.3 185.153,250.091 						"/>
						<polygon style="fill:#D18067;" points="185.195,250.593 184.852,250.521 184.04,251.011 183.376,251.673 183.206,252.59 
							183.206,253.377 183.623,254.303 183.58,256.127 183.206,259.903 183.206,261.658 184.04,262.805 185.019,253.992 
							184.945,252.496 184.947,251.567 185.155,250.939 						"/>
						<polygon style="fill:#944E39;" points="186.541,252.988 186.264,251.814 185.888,251.112 185.678,250.625 185.155,250.939 
							184.585,251.775 184.117,252.702 183.998,253.681 184.04,262.805 185.888,263.339 186.602,260.777 						"/>
						<polygon style="fill:#66BBCC;" points="187.249,250.551 187.225,251.142 187.196,251.77 						"/>
						<polygon style="fill:#853E2A;" points="188.403,251.673 187.663,250.651 187.196,250.261 186.623,250.091 186.602,250.22 
							186.867,250.531 187.557,251.457 						"/>
						<polygon style="fill:#693121;" points="188.403,251.673 187.736,251.011 186.923,250.521 186.645,250.6 186.623,250.939 
							186.727,252.887 186.784,260.661 187.784,262.877 188.568,261.658 188.571,252.59 						"/>
						<polygon style="fill:#853E2A;" points="187.666,252.702 187.196,251.77 186.623,250.939 186.143,250.851 185.888,251.112 
							185.888,263.339 187.784,262.877 187.784,253.681 						"/>
						<polygon style="fill:#853E2A;" points="186.622,250.091 185.886,249.913 185.155,250.091 184.852,250.521 185.155,250.939 
							185.888,251.112 186.623,250.939 186.923,250.521 						"/>
						<g>
							<polygon style="fill:#FFFFFF;" points="184.002,254.473 183.209,253.377 183.209,259.903 184.02,261.054 							"/>
						</g>
					</g>
					<g>
						<polygon style="fill:#944E39;" points="185.886,246.468 185.155,246.292 185.001,246.561 185.155,250.939 185.886,251.112 
							186.193,250.416 						"/>
						<polygon style="fill:#853E2A;" points="185.886,246.468 186.622,246.292 186.771,246.561 186.622,250.939 185.886,251.112 
													"/>
						<polygon style="fill:#E8F3FF;" points="186.622,245.445 185.885,245.267 185.153,245.445 184.848,245.866 185.155,246.292 
							185.886,246.468 186.622,246.292 186.923,245.864 						"/>
						<polygon style="fill:#693121;" points="186.622,246.292 186.923,245.866 186.923,250.521 186.622,250.939 						"/>
						<polygon style="fill:#D18067;" points="185.155,246.292 184.848,245.866 184.848,250.521 185.155,250.939 						"/>
						<polygon style="opacity:0.3;" points="186.622,246.337 186.622,246.337 186.622,246.337 185.886,246.511 185.155,246.337 
							184.848,245.907 184.848,246.269 185.155,246.686 185.886,246.861 186.622,246.686 186.622,246.686 186.622,246.686 
							186.923,246.269 186.923,245.907 						"/>
					</g>
					<g>
						<polygon style="fill:#944E39;" points="185.886,245.676 185.086,245.481 184.918,245.784 185.086,246.398 185.886,246.582 
							186.222,245.82 						"/>
						<polygon style="fill:#853E2A;" points="185.886,245.676 186.691,245.481 186.858,245.784 186.691,246.398 185.886,246.582 
													"/>
						<polygon style="fill:#D18067;" points="186.685,244.555 185.885,244.363 185.085,244.56 184.751,245.026 185.086,245.481 
							185.886,245.676 186.691,245.481 187.023,245.026 						"/>
						<polygon style="fill:#693121;" points="186.58,244.617 185.886,244.454 185.192,244.621 184.909,245.026 185.195,245.418 
							185.888,245.585 186.586,245.418 186.869,245.026 						"/>
						<polygon style="fill:#693121;" points="186.691,245.481 187.023,245.026 187.023,245.93 186.691,246.398 						"/>
						<polygon style="fill:#D18067;" points="185.086,245.481 184.751,245.026 184.751,245.93 185.086,246.398 						"/>
					</g>
				</g>
				<g>
					<g>
						<polygon style="opacity:0.3;" points="207.149,281.171 205.122,280.689 203.094,281.174 202.286,282.299 203.094,283.518 
							205.125,284.005 207.152,283.518 207.944,282.276 						"/>
						<polygon style="fill:#898C55;" points="203.808,272.796 203.34,273.185 202.601,274.207 203.341,274.308 204.081,273.054 
							204.313,272.832 204.382,272.631 						"/>
						<polygon style="fill:#C3C270;" points="204.423,273.127 204.081,273.054 203.268,273.548 202.601,274.207 202.433,275.127 
							202.433,275.911 202.849,276.84 202.806,278.661 202.433,280.479 202.433,282.23 203.268,283.379 204.245,276.531 
							204.171,275.033 204.174,274.102 204.382,273.473 						"/>
						<polygon style="fill:#898C55;" points="205.769,275.525 205.49,274.353 205.118,273.653 204.902,273.161 204.382,273.473 
							203.81,274.308 203.344,275.236 203.226,276.221 203.268,283.379 205.118,283.905 205.827,281.348 						"/>
						<polygon style="fill:#66BBCC;" points="206.476,273.086 206.451,273.677 206.422,274.303 						"/>
						<polygon style="fill:#7C8552;" points="207.63,274.207 206.894,273.185 206.422,272.796 205.851,272.631 205.827,272.757 
							206.095,273.064 206.781,273.99 						"/>
						<polygon style="fill:#6A7147;" points="207.63,274.207 206.962,273.548 206.152,273.054 205.871,273.137 205.851,273.473 
							205.953,275.424 206.015,281.232 207.01,283.454 207.796,282.23 207.798,275.127 						"/>
						<polygon style="fill:#7C8552;" points="206.894,275.232 206.422,274.303 205.851,273.473 205.371,273.388 205.118,273.653 
							205.118,283.905 207.01,283.454 207.01,276.221 						"/>
						<polygon style="fill:#898C55;" points="205.851,272.631 205.115,272.453 204.382,272.631 204.081,273.054 204.382,273.473 
							205.118,273.653 205.851,273.473 206.152,273.054 						"/>
						<g>
							<polygon style="fill:#FA5C52;" points="203.229,277.014 202.435,275.911 202.435,280.479 203.246,281.622 203.488,279.586 
															"/>
							<polygon style="fill:#AB281F;" points="207.015,277.005 205.119,277.461 204.639,278.775 205.119,282.161 207.015,281.702 
															"/>
							<polygon style="fill:#C84030;" points="205.119,277.461 203.229,277.014 203.246,281.622 205.119,282.161 							"/>
						</g>
					</g>
					<g>
						<polygon style="fill:#898C55;" points="205.115,269.004 204.382,268.828 204.229,269.093 204.382,273.473 205.115,273.653 
							205.418,272.953 						"/>
						<polygon style="fill:#7C8552;" points="205.115,269.004 205.851,268.828 206.001,269.093 205.851,273.473 205.115,273.653 
													"/>
						<polygon style="fill:#E8F3FF;" points="205.851,267.977 205.111,267.806 204.382,267.977 204.079,268.4 204.382,268.828 
							205.115,269.004 205.851,268.828 206.152,268.4 						"/>
						<polygon style="fill:#6A7147;" points="205.851,268.828 206.152,268.4 206.152,273.054 205.851,273.473 						"/>
						<polygon style="fill:#C3C270;" points="204.382,268.828 204.079,268.4 204.079,273.054 204.382,273.473 						"/>
						<polygon style="opacity:0.3;" points="205.851,268.869 205.851,268.869 205.851,268.869 205.115,269.043 204.382,268.869 
							204.079,268.45 204.079,268.801 204.382,269.224 205.115,269.401 205.851,269.224 205.851,269.221 205.851,269.224 
							206.152,268.801 206.152,268.45 						"/>
					</g>
					<g>
						<polygon style="fill:#898C55;" points="205.115,268.212 204.313,268.021 204.144,268.317 204.313,268.928 205.115,269.118 
							205.451,268.353 						"/>
						<polygon style="fill:#7C8552;" points="205.115,268.212 205.917,268.021 206.086,268.317 205.917,268.928 205.115,269.118 
													"/>
						<polygon style="fill:#C3C270;" points="205.915,267.089 205.111,266.904 204.313,267.096 203.98,267.554 204.313,268.021 
							205.115,268.212 205.917,268.018 206.249,267.554 						"/>
						<polygon style="fill:#6A7147;" points="205.809,267.157 205.115,266.998 204.419,267.162 204.132,267.554 204.423,267.963 
							205.118,268.126 205.811,267.963 206.095,267.554 						"/>
						<polygon style="fill:#6A7147;" points="205.917,268.021 206.251,267.554 206.251,268.466 205.917,268.928 						"/>
						<polygon style="fill:#C3C270;" points="204.313,268.021 203.98,267.554 203.98,268.466 204.313,268.928 						"/>
					</g>
				</g>
			</g>
			<g>
				<g>
					<path style="opacity:0.3;" d="M93.79,300.846h-9.102l-6.581-3.793v-5.615l6.581-3.794h9.102l6.589,3.794v5.615L93.79,300.846z"
						/>
					<g>
						<polygon style="fill:#574943;" points="93.68,299.296 84.798,299.296 78.519,295.675 78.519,290.536 84.798,286.916 
							93.68,286.916 99.967,290.536 99.967,295.675 						"/>
						<polygon style="fill:#362C29;" points="84.798,300.435 89.236,299.718 84.798,299.296 78.519,295.675 78.519,296.806 						
							"/>
						<polygon style="fill:#0A0808;" points="99.967,296.806 99.967,295.675 93.68,299.296 89.236,299.718 93.68,300.435 						"/>
						<rect x="84.798" y="299.296" style="fill:#211A1A;" width="8.881" height="1.139"/>
					</g>
					<g>
						<polygon style="fill:#574943;" points="90.007,292.66 88.479,292.66 87.397,292.036 87.397,291.152 88.479,290.529 
							90.007,290.529 91.089,291.152 91.089,292.036 						"/>
						<polygon style="fill:#362C29;" points="88.479,293.676 89.242,293.552 88.479,292.66 87.397,292.036 87.397,293.051 						"/>
						<polygon style="fill:#0A0808;" points="91.089,293.051 91.089,292.036 90.007,292.66 89.242,293.552 90.007,293.676 						"/>
						<rect x="88.479" y="292.66" style="fill:#211A1A;" width="1.528" height="1.016"/>
					</g>
					<g>
						<polygon style="fill:#574943;" points="89.603,216.096 88.882,216.096 88.371,215.801 88.371,215.384 88.882,215.089 
							89.603,215.09 90.114,215.384 90.114,215.801 						"/>
						<polygon style="fill:#362C29;" points="88.882,292.065 89.242,291.41 88.882,216.096 88.371,215.801 88.371,291.771 						"/>
						<polygon style="fill:#0A0808;" points="90.114,291.771 90.114,215.801 89.603,216.096 89.242,291.41 89.603,292.065 						"/>
						<rect x="88.882" y="216.096" style="fill:#211A1A;" width="0.721" height="75.969"/>
					</g>
				</g>
				<g>
					<g>
						<polygon style="fill:#D1D1D1;" points="86.046,196.435 81.464,198.836 78.846,262.041 87.426,258.243 						"/>
						<polygon style="fill:#D1D1D1;" points="92.467,196.435 97.048,198.836 99.668,262.041 91.086,258.243 						"/>
						<polygon style="fill:#E0DEDC;" points="92.467,196.435 91.315,196.247 87.133,196.247 86.046,196.435 84.111,262.043 
							94.4,262.043 						"/>
					</g>
					<g>
						<g>
							<g>
								<path style="fill:#B5A794;" d="M89.636,213.826l0.534-0.309v-0.439l-0.534-0.311h-0.76l-0.536,0.311v0.439l0.536,0.309
									H89.636z"/>
								<polygon style="fill:#836E69;" points="88.877,213.826 88.341,213.518 88.669,214.461 89.013,214.661 88.922,213.886 
																	"/>
								<polygon style="fill:#685750;" points="89.636,213.826 88.877,213.826 89.013,214.661 89.5,214.661 89.698,213.871 								
									"/>
								<polygon style="fill:#403531;" points="90.17,213.518 89.636,213.826 89.5,214.661 89.845,214.461 								"/>
							</g>
							<g>
								<path style="fill:#B5A794;" d="M89.831,213.62l0.815-0.469v-0.665l-0.815-0.47h-1.151l-0.816,0.47v0.665l0.816,0.469H89.831
									z"/>
								<polygon style="fill:#A39685;" points="88.681,213.62 87.865,213.151 87.865,213.674 88.681,214.145 88.748,213.709 
																	"/>
								<polygon style="fill:#736656;" points="89.831,213.62 88.681,213.62 88.681,214.145 89.831,214.145 89.925,213.689 								
									"/>
								<polygon style="fill:#5E4439;" points="90.646,213.151 89.831,213.62 89.831,214.145 90.646,213.674 								"/>
							</g>
							<g>
								<path style="fill:#B5A794;" d="M89.913,213.305l0.929-0.537v-0.758l-0.929-0.534H88.6l-0.928,0.534v0.758l0.928,0.537
									H89.913z"/>
								<polygon style="fill:#A39685;" points="88.6,213.305 87.672,212.768 87.672,213.365 88.6,213.901 88.676,213.406 								
									"/>
								<polygon style="fill:#736656;" points="89.913,213.305 88.6,213.305 88.6,213.901 89.913,213.901 90.021,213.382 								
									"/>
								<polygon style="fill:#5E4439;" points="90.842,212.768 89.913,213.305 89.913,213.901 90.84,213.365 								"/>
							</g>
							<g>
								<path style="fill:#B5A794;" d="M89.831,212.594l0.815-0.471v-0.664l-0.815-0.47l-1.151-0.001l-0.816,0.471v0.664
									l0.816,0.471H89.831z"/>
								<polygon style="fill:#A39685;" points="88.681,212.594 87.865,212.123 87.865,212.648 88.681,213.118 88.748,212.684 
																	"/>
								<polygon style="fill:#736656;" points="89.831,212.594 88.681,212.594 88.681,213.118 89.831,213.118 89.925,212.661 
																	"/>
								<polygon style="fill:#5E4439;" points="90.646,212.123 89.831,212.594 89.831,213.118 90.646,212.648 								"/>
							</g>
							<g>
								<path style="fill:#B5A794;" d="M89.913,212.277l0.929-0.535v-0.759l-0.929-0.536H88.6l-0.928,0.536v0.759l0.928,0.535
									H89.913z"/>
								<polygon style="fill:#A39685;" points="88.6,212.277 87.672,211.742 87.672,212.338 88.6,212.875 88.676,212.378 								
									"/>
								<polygon style="fill:#736656;" points="89.913,212.277 88.6,212.277 88.6,212.875 89.913,212.874 90.021,212.355 								
									"/>
								<polygon style="fill:#5E4439;" points="90.842,211.742 89.913,212.277 89.913,212.874 90.84,212.338 								"/>
							</g>
							<g>
								<path style="fill:#B5A794;" d="M89.831,211.589l0.815-0.47v-0.665l-0.815-0.47h-1.151l-0.816,0.47v0.665l0.816,0.47H89.831z
									"/>
								<polygon style="fill:#A39685;" points="88.681,211.589 87.865,211.119 87.865,211.643 88.681,212.113 88.748,211.678 
																	"/>
								<polygon style="fill:#736656;" points="89.831,211.589 88.681,211.589 88.681,212.113 89.831,212.113 89.925,211.656 
																	"/>
								<polygon style="fill:#5E4439;" points="90.646,211.119 89.831,211.589 89.831,212.113 90.646,211.643 								"/>
							</g>
							<g>
								<path style="fill:#B5A794;" d="M89.913,211.273l0.929-0.537v-0.758l-0.929-0.535H88.6l-0.928,0.535v0.758l0.928,0.538
									L89.913,211.273z"/>
								<polygon style="fill:#A39685;" points="88.6,211.273 87.672,210.735 87.672,211.334 88.6,211.87 88.676,211.375 								"/>
								<polygon style="fill:#736656;" points="89.913,211.273 88.6,211.273 88.6,211.87 89.913,211.87 90.021,211.349 								"/>
								<polygon style="fill:#5E4439;" points="90.842,210.735 89.913,211.273 89.913,211.87 90.84,211.334 								"/>
							</g>
						</g>
						<g>
							<polygon style="fill:#E09D38;" points="88.6,211.273 87.672,210.735 86.348,208.523 88.456,209.089 							"/>
							<polygon style="fill:#E09D38;" points="89.913,211.273 90.842,210.735 92.164,208.523 90.056,209.089 							"/>
							<path style="fill:#FFF3AB;" d="M89.843,206.086l0.831-0.479v-0.678l-0.831-0.479h-1.173l-0.83,0.479v0.678l0.83,0.479H89.843
								z"/>
							<polygon style="fill:#FFC654;" points="89.913,211.273 88.6,211.273 88.051,209.506 90.462,209.506 							"/>
							<polygon style="fill:#FBE979;" points="90.462,209.506 88.051,209.506 88.281,207.756 90.233,207.756 							"/>
							<polygon style="fill:#FFC654;" points="92.164,208.523 90.462,209.506 90.233,207.756 91.613,206.958 							"/>
							<polygon style="fill:#FFC654;" points="86.348,208.523 88.051,209.506 88.281,207.756 86.901,206.958 							"/>
							<polygon style="fill:#E09D38;" points="92.164,207.13 92.164,208.523 91.613,206.958 91.613,205.831 							"/>
							<polygon style="fill:#FFC654;" points="91.613,205.831 91.613,206.958 90.673,205.607 90.673,204.93 							"/>
							<polygon style="fill:#FFC654;" points="86.901,205.831 86.901,206.958 87.84,205.607 87.84,204.93 							"/>
							<polygon style="fill:#E09D38;" points="86.348,207.13 86.348,208.523 86.901,206.958 86.901,205.831 							"/>
							<polygon style="fill:#FFF094;" points="90.233,207.756 88.281,207.756 88.669,206.086 89.843,206.086 							"/>
							<polygon style="fill:#FBE979;" points="91.613,206.958 90.233,207.756 89.843,206.086 90.673,205.607 							"/>
							<polygon style="fill:#FBE979;" points="86.901,206.958 88.281,207.756 88.669,206.086 87.84,205.607 							"/>
						</g>
					</g>
					<g>
						<path style="fill:#FFFFFF;" d="M86.046,196.435h6.42l4.413,2.549v3.404l-4.413,2.548h-6.42l-4.414-2.548v-3.404
							L86.046,196.435L86.046,196.435z M85.95,196.078l-4.675,2.699v3.817l4.675,2.699h6.612l4.675-2.699v-3.817l-4.675-2.699H85.95
							L85.95,196.078z"/>
						<polygon style="fill:#E0DEDC;" points="92.562,205.293 85.95,205.293 81.822,263.366 84.112,276.383 94.401,276.383 
							95.511,263.19 						"/>
						<polygon style="fill:#B5AFA7;" points="101.675,266.242 101.675,272.182 97.936,262.697 97.237,202.594 97.237,198.777 						
							"/>
						<polygon style="fill:#E0DEDC;" points="76.837,266.242 76.837,272.182 80.577,262.697 81.275,202.594 81.275,198.777 						
							"/>
						<polygon style="fill:#D1D1D1;" points="97.237,202.594 92.562,205.293 94.401,276.383 101.675,272.182 						"/>
						<polygon style="fill:#F4EFE9;" points="81.275,202.594 85.95,205.293 84.112,276.383 76.837,272.182 						"/>
					</g>
				</g>
			</g>
			<g>
				<polygon style="opacity:0.3;" points="188.621,370.735 86.982,312.055 121.372,292.174 223.009,350.855 				"/>
				<g>
					<polygon style="fill:#403531;" points="221.06,346.331 220.687,351.207 219.647,351.809 219.361,346.789 					"/>
					<polygon style="fill:#544540;" points="219.799,347.059 219.647,351.809 218.188,351.809 216.782,346.331 					"/>
					<polygon style="fill:#685750;" points="218.032,347.059 218.188,351.809 217.153,351.207 216.782,346.331 					"/>
					<polygon style="fill:#836E69;" points="216.782,345.317 216.782,346.331 218.032,347.059 219.799,347.059 221.06,346.331 
						221.06,345.317 219.803,344.586 218.032,344.586 					"/>
				</g>
				<g>
					<polygon style="fill:#403531;" points="190.89,363.777 190.517,368.654 189.476,369.255 189.19,364.234 					"/>
					<polygon style="fill:#544540;" points="189.629,364.503 189.476,369.255 188.016,369.255 186.61,363.777 					"/>
					<polygon style="fill:#685750;" points="187.862,364.503 188.016,369.255 186.982,368.654 186.61,363.777 					"/>
					<polygon style="fill:#836E69;" points="186.61,362.763 186.61,363.777 187.862,364.503 189.629,364.503 190.89,363.777 
						190.89,362.763 189.632,362.031 187.862,362.031 					"/>
				</g>
				<g>
					<polygon style="fill:#403531;" points="93.415,307.5 93.043,312.377 92.003,312.978 91.716,307.958 					"/>
					<polygon style="fill:#544540;" points="92.155,308.227 92.003,312.978 90.544,312.978 89.135,307.5 					"/>
					<polygon style="fill:#685750;" points="90.388,308.227 90.544,312.978 89.508,312.377 89.135,307.5 					"/>
					<polygon style="fill:#836E69;" points="89.135,306.487 89.135,307.5 90.388,308.227 92.155,308.227 93.415,307.5 
						93.415,306.487 92.159,305.755 90.388,305.755 					"/>
				</g>
				<g>
					<polygon style="fill:#685750;" points="188.749,365.179 87.958,306.986 87.958,303.545 188.749,360.491 190.604,362.532 					
						"/>
					<polygon style="fill:#403531;" points="222.229,345.823 188.749,365.179 188.749,360.491 222.229,342.381 					"/>
				</g>
				<g>
					<polygon style="fill:#C84030;" points="93.564,306.781 87.958,303.545 81.53,263.653 92.26,262.958 					"/>
					<polygon style="fill:#AB281F;" points="100.706,286.369 97.679,287.19 93.096,282.815 95.1,283.134 100.178,283.373 					"/>
					<polygon style="fill:#FA5C52;" points="100.706,286.369 95.1,283.134 121.28,264.617 126.885,267.853 116.35,279.739 					"/>
					<polygon style="fill:#8A1C14;" points="100.706,286.369 98.702,286.052 92.26,262.958 87.136,266.89 93.564,306.781 
						127.044,287.426 129.128,269.697 126.885,267.853 					"/>
					<polygon style="fill:#FA5C52;" points="87.136,266.89 81.53,263.653 86.654,259.722 92.26,262.958 					"/>
				</g>
				<polygon style="fill:#418080;" points="187.792,359.525 218.709,341.651 218.707,336.829 187.792,354.705 				"/>
				<g>
					<g>
						<polygon style="fill:#544540;" points="165.673,293.053 167.044,291.846 170.387,291.337 171.441,292.028 171.26,293.446 
							170.028,294.991 						"/>
						<polygon style="fill:#685750;" points="159.232,299.708 159.191,299.299 159.191,298.026 163.154,294.536 164.215,294.337 
							165.673,293.053 169.224,293.337 170.028,294.991 169.26,295.954 165.444,298.935 164.299,300.836 						"/>
						<polygon style="fill:#544540;" points="164.299,300.836 163.408,302.315 161.627,303.478 159.512,302.533 159.232,299.708 
							160.246,299.708 162.717,299.708 						"/>
						<polygon style="fill:#B5AFA7;" points="158.791,285.559 163.663,294.428 163.663,296.682 161.045,299.299 158.283,299.299 
							152.612,291.737 						"/>
					</g>
					<polygon style="fill:#C84030;" points="190.232,345.119 100.61,293.406 129.833,276.507 219.457,328.22 205.761,340.777 					
						"/>
					<g>
						<polygon style="fill:#544540;" points="151.485,270.908 153.375,269.745 154.83,270.036 155.593,272.69 154.539,276.106 
													"/>
						<polygon style="fill:#685750;" points="145.981,276.219 147.886,274.907 151.485,270.908 153.012,271.398 154.539,276.106 
							149.304,279.523 146.992,280.148 						"/>
						<polygon style="fill:#544540;" points="146.992,280.148 145.978,280.423 143.888,279.142 144.506,277.233 145.981,276.219 
							146.932,277.669 147.287,279.441 						"/>
						<polygon style="fill:#B5AFA7;" points="152.612,291.737 140.835,290.647 138.508,282.603 141.561,279.597 150.26,279.917 
							158.791,285.559 						"/>
						<polygon style="fill:#E6E1DD;" points="124.171,291.39 126.585,297.192 128.984,300.098 134.655,302.134 143.034,301.698 
							165.407,282.603 166.061,278.797 162.936,276.252 153.557,275.09 150.794,275.09 148.977,277.488 149.122,280.613 
							151.376,281.851 141.198,286.575 						"/>
						<polygon style="fill:#E3BD5E;" points="118.438,270.362 123.568,268.618 124.171,263.584 121.932,262.148 116.961,261.502 
													"/>
						<polygon style="fill:#F0C6B4;" points="125.342,261.337 125.095,263.492 124.876,265.619 127.003,268.399 131.501,268.673 
							134.01,267.337 133.655,266.273 133.256,264.883 133.328,262.148 133.764,260.275 131.229,259.076 125.913,259.485 						"/>
						<polygon style="fill:#FBE979;" points="133.655,266.273 133.256,267.273 130.983,267.565 127.767,266.638 125.585,265.329 
							125.095,263.492 121.769,263.819 119.751,265.51 118.333,270.744 119.915,276.197 123.023,281.649 124.059,291.191 
							125.204,293.209 133.256,297.734 138.781,297.734 143.034,294.518 143.034,290.864 141.998,286.993 141.78,283.395 
							142.434,280.123 142.304,277.57 141.452,273.198 137.89,269.092 						"/>
						<polygon style="fill:#F0C6B4;" points="135.8,253.896 136.381,254.206 136.381,255.278 136.091,255.629 135.8,255.15 						
							"/>
						<polygon style="fill:#F0C6B4;" points="132.606,249.109 134.4,250.226 136,252.334 136.254,255.477 136.654,256.567 
							136.236,260.494 134.63,261.876 133.328,262.148 132.819,261.295 132.183,261.039 131.965,260.494 130.784,260.367 
							129.857,249.463 						"/>
						<polygon style="fill:#944E39;" points="133.855,253.823 132.292,253.97 131.383,253.315 131.447,252.233 132.265,251.143 
							132.744,249.972 132.592,249.016 131.638,248.371 129.203,248.153 127.094,249.025 124.949,250.733 123.35,252.515 
							122.659,254.587 122.514,256.332 122.841,258.367 123.822,259.967 124.913,261.058 126.476,262.075 128.402,262.402 
							129.966,262.402 131.202,261.566 131.965,260.494 131.903,259.429 132.729,258.223 133.703,257.978 134.11,258.513 
							134.873,257.822 134.655,256.622 134.655,254.878 						"/>
						<polygon style="fill:#B5AFA7;" points="151.376,281.851 150.477,281.367 159.512,277.982 						"/>
					</g>
					<polygon style="fill:#F0C6B4;" points="154.863,285.177 160.285,290.799 161.411,294.163 159.549,297.004 158.612,297.497 
						156.054,296.151 156.226,294.888 155.987,293.467 155.169,292.914 152.849,289.478 152.949,288.113 154.32,284.866 					"/>
					<polygon style="fill:#FA5C52;" points="181.417,311.517 91.794,259.804 95.262,257.175 184.885,308.887 183.88,313.64 					"/>
					<polygon style="fill:#C84030;" points="187.792,354.705 98.169,302.991 91.794,259.804 181.417,311.517 184.885,320.789 					
						"/>
					<polygon style="fill:#8A1C14;" points="190.232,345.119 184.885,308.887 181.417,311.517 187.792,354.705 219.457,336.397 
						219.457,328.22 					"/>
					<g>
						<polygon style="fill:#E3BD5E;" points="152.949,288.113 142.325,286.575 137.526,283.449 133.71,278.105 132.946,274.397 
							134.655,272.272 138.454,271.181 140.525,273.58 142.543,278.105 142.979,279.632 144.669,280.068 154.32,284.866 
							154.539,285.961 154.064,287.65 						"/>
						<polygon style="fill:#CC934C;" points="137.417,282.222 137.895,280.56 139.599,280.123 138.508,280.859 						"/>
					</g>
					<polygon style="fill:#F0C6B4;" points="101.894,254.763 102.652,253.664 102.357,251.552 99.904,250.733 95.923,252.069 
						95.923,254.319 97.189,255.116 					"/>
					<polygon style="fill:#E3BD5E;" points="97.189,255.116 98.05,259.676 101.322,263.819 108.955,267.31 118.438,270.362 
						118.438,264.57 116.961,261.502 115.498,261.311 105.465,259.185 105.193,257.768 101.894,254.763 100.831,253.416 
						97.703,253.686 					"/>
				</g>
				<g>
					<polygon style="fill:#C84030;" points="183.143,358.5 93.564,306.781 87.546,289.186 87.136,266.89 181.839,314.677 					"/>
					<polygon style="fill:#FA5C52;" points="176.715,318.608 87.136,266.89 92.26,262.958 181.839,314.677 					"/>
				</g>
				<g>
					<polygon style="fill:#C84030;" points="188.749,361.735 183.143,358.5 176.715,318.608 187.445,317.913 					"/>
					<polygon style="fill:#AB281F;" points="195.891,341.325 192.865,342.146 188.283,337.77 190.285,338.089 195.364,338.329 					
						"/>
					<polygon style="fill:#FA5C52;" points="195.891,341.325 190.285,338.089 216.466,319.572 222.072,322.808 211.535,334.694 
											"/>
					<polygon style="fill:#8A1C14;" points="195.891,341.325 193.887,341.007 187.445,317.913 182.321,321.847 188.749,361.735 
						222.229,342.381 224.313,324.652 222.072,322.808 					"/>
					<polygon style="fill:#FA5C52;" points="182.321,321.847 176.715,318.608 181.839,314.677 187.445,317.913 					"/>
				</g>
			</g>
			<g>
				<g>
					<path style="opacity:0.3;" d="M225.594,376.943h-9.102l-6.582-3.794v-5.614l6.582-3.794h9.102l6.589,3.794v5.614
						L225.594,376.943z"/>
					<g>
						<polygon style="fill:#574943;" points="225.483,375.393 216.602,375.393 210.322,371.772 210.322,366.634 216.602,363.014 
							225.483,363.014 231.77,366.634 231.77,371.772 						"/>
						<polygon style="fill:#362C29;" points="216.602,376.532 221.04,375.815 216.602,375.393 210.322,371.772 210.322,372.903 
													"/>
						<polygon style="fill:#0A0808;" points="231.77,372.903 231.77,371.772 225.483,375.393 221.04,375.815 225.483,376.532 						
							"/>
						<rect x="216.602" y="375.393" style="fill:#211A1A;" width="8.881" height="1.14"/>
					</g>
					<g>
						<polygon style="fill:#574943;" points="221.811,368.758 220.283,368.758 219.201,368.133 219.201,367.25 220.283,366.627 
							221.811,366.627 222.894,367.25 222.894,368.133 						"/>
						<polygon style="fill:#362C29;" points="220.283,369.773 221.046,369.648 220.283,368.758 219.201,368.133 219.201,369.147 
													"/>
						<polygon style="fill:#0A0808;" points="222.894,369.147 222.894,368.133 221.811,368.758 221.046,369.648 221.811,369.773 
													"/>
						<rect x="220.283" y="368.758" style="fill:#211A1A;" width="1.528" height="1.016"/>
					</g>
					<g>
						<polygon style="fill:#574943;" points="221.408,292.192 220.686,292.192 220.174,291.897 220.174,291.481 220.686,291.186 
							221.408,291.188 221.917,291.481 221.917,291.897 						"/>
						<polygon style="fill:#362C29;" points="220.686,368.162 221.046,367.507 220.686,292.192 220.174,291.897 220.174,367.868 
													"/>
						<polygon style="fill:#0A0808;" points="221.917,367.868 221.917,291.897 221.408,292.192 221.046,367.507 221.408,368.162 
													"/>
						<rect x="220.686" y="292.192" style="fill:#211A1A;" width="0.722" height="75.97"/>
					</g>
				</g>
				<g>
					<g>
						<polygon style="fill:#D1D1D1;" points="217.85,272.532 213.268,274.934 210.649,338.138 219.23,334.34 						"/>
						<polygon style="fill:#D1D1D1;" points="224.27,272.532 228.852,274.934 231.472,338.138 222.89,334.34 						"/>
						<polygon style="fill:#E0DEDC;" points="224.27,272.532 223.119,272.345 218.937,272.345 217.85,272.532 215.916,338.14 
							226.204,338.14 						"/>
					</g>
					<g>
						<g>
							<g>
								<path style="fill:#B5A794;" d="M221.44,289.924l0.535-0.31v-0.438l-0.535-0.311h-0.76l-0.535,0.311v0.438l0.535,0.31H221.44
									z"/>
								<polygon style="fill:#836E69;" points="220.68,289.924 220.145,289.614 220.472,290.559 220.816,290.758 220.726,289.983 
																	"/>
								<polygon style="fill:#685750;" points="221.44,289.924 220.68,289.924 220.816,290.758 221.304,290.758 221.501,289.968 
																	"/>
								<polygon style="fill:#403531;" points="221.975,289.614 221.44,289.924 221.304,290.758 221.65,290.559 								"/>
							</g>
							<g>
								<path style="fill:#B5A794;" d="M221.636,289.718l0.814-0.469v-0.665l-0.814-0.471h-1.152l-0.814,0.471v0.665l0.814,0.469
									H221.636z"/>
								<polygon style="fill:#A39685;" points="220.484,289.718 219.67,289.249 219.67,289.772 220.484,290.241 220.552,289.807 
																	"/>
								<polygon style="fill:#736656;" points="221.636,289.718 220.484,289.718 220.484,290.241 221.636,290.241 221.73,289.787 
																	"/>
								<polygon style="fill:#5E4439;" points="222.451,289.249 221.636,289.718 221.636,290.241 222.451,289.772 								"/>
							</g>
							<g>
								<path style="fill:#B5A794;" d="M221.716,289.401l0.93-0.536v-0.758l-0.93-0.535h-1.312l-0.929,0.535v0.758l0.929,0.536
									H221.716z"/>
								<polygon style="fill:#A39685;" points="220.404,289.401 219.476,288.865 219.476,289.462 220.404,289.999 220.481,289.504 
																	"/>
								<polygon style="fill:#736656;" points="221.716,289.401 220.404,289.401 220.404,289.999 221.716,289.999 221.825,289.479 
																	"/>
								<polygon style="fill:#5E4439;" points="222.646,288.865 221.716,289.401 221.716,289.999 222.645,289.462 								"/>
							</g>
							<g>
								<path style="fill:#B5A794;" d="M221.636,288.691l0.814-0.472v-0.663l-0.814-0.47l-1.152-0.001l-0.814,0.471v0.663
									l0.814,0.472H221.636z"/>
								<polygon style="fill:#A39685;" points="220.484,288.691 219.67,288.22 219.67,288.745 220.484,289.215 220.552,288.78 
																	"/>
								<polygon style="fill:#736656;" points="221.636,288.691 220.484,288.691 220.484,289.215 221.636,289.215 221.73,288.759 
																	"/>
								<polygon style="fill:#5E4439;" points="222.451,288.22 221.636,288.691 221.636,289.215 222.451,288.745 								"/>
							</g>
							<g>
								<path style="fill:#B5A794;" d="M221.716,288.375l0.93-0.536v-0.758l-0.93-0.536h-1.312l-0.929,0.536v0.758l0.929,0.536
									H221.716z"/>
								<polygon style="fill:#A39685;" points="220.404,288.375 219.476,287.839 219.476,288.435 220.404,288.973 220.481,288.476 
																	"/>
								<polygon style="fill:#736656;" points="221.716,288.375 220.404,288.375 220.404,288.973 221.716,288.972 221.825,288.452 
																	"/>
								<polygon style="fill:#5E4439;" points="222.646,287.839 221.716,288.375 221.716,288.972 222.645,288.435 								"/>
							</g>
							<g>
								<path style="fill:#B5A794;" d="M221.636,287.686l0.814-0.47v-0.665l-0.814-0.471h-1.152l-0.814,0.471v0.665l0.814,0.47
									H221.636z"/>
								<polygon style="fill:#A39685;" points="220.484,287.686 219.67,287.217 219.67,287.739 220.484,288.211 220.552,287.775 
																	"/>
								<polygon style="fill:#736656;" points="221.636,287.686 220.484,287.686 220.484,288.211 221.636,288.211 221.73,287.753 
																	"/>
								<polygon style="fill:#5E4439;" points="222.451,287.217 221.636,287.686 221.636,288.211 222.451,287.739 								"/>
							</g>
							<g>
								<path style="fill:#B5A794;" d="M221.716,287.37l0.93-0.537v-0.758l-0.93-0.535h-1.312l-0.929,0.535v0.758l0.929,0.537
									H221.716z"/>
								<polygon style="fill:#A39685;" points="220.404,287.37 219.476,286.833 219.476,287.431 220.404,287.967 220.481,287.472 
																	"/>
								<polygon style="fill:#736656;" points="221.716,287.37 220.404,287.37 220.404,287.967 221.716,287.967 221.825,287.446 
																	"/>
								<polygon style="fill:#5E4439;" points="222.646,286.833 221.716,287.37 221.716,287.967 222.645,287.431 								"/>
							</g>
						</g>
						<g>
							<polygon style="fill:#E09D38;" points="220.404,287.37 219.476,286.833 218.152,284.619 220.261,285.186 							"/>
							<polygon style="fill:#E09D38;" points="221.716,287.37 222.646,286.833 223.969,284.619 221.859,285.186 							"/>
							<path style="fill:#FFF3AB;" d="M221.646,282.183l0.831-0.477v-0.679l-0.831-0.478h-1.172l-0.83,0.478v0.679l0.83,0.477
								H221.646z"/>
							<polygon style="fill:#FFC654;" points="221.716,287.37 220.404,287.37 219.855,285.603 222.267,285.603 							"/>
							<polygon style="fill:#FBE979;" points="222.267,285.603 219.855,285.603 220.085,283.853 222.037,283.853 							"/>
							<polygon style="fill:#FFC654;" points="223.969,284.619 222.267,285.603 222.037,283.853 223.416,283.056 							"/>
							<polygon style="fill:#FFC654;" points="218.152,284.619 219.855,285.603 220.085,283.853 218.706,283.056 							"/>
							<polygon style="fill:#E09D38;" points="223.969,283.228 223.969,284.619 223.416,283.056 223.416,281.929 							"/>
							<polygon style="fill:#FFC654;" points="223.416,281.929 223.416,283.056 222.478,281.705 222.478,281.026 							"/>
							<polygon style="fill:#FFC654;" points="218.706,281.929 218.706,283.056 219.644,281.705 219.644,281.026 							"/>
							<polygon style="fill:#E09D38;" points="218.152,283.228 218.152,284.619 218.706,283.056 218.706,281.929 							"/>
							<polygon style="fill:#FFF094;" points="222.037,283.853 220.085,283.853 220.474,282.183 221.646,282.183 							"/>
							<polygon style="fill:#FBE979;" points="223.416,283.056 222.037,283.853 221.646,282.183 222.478,281.705 							"/>
							<polygon style="fill:#FBE979;" points="218.706,283.056 220.085,283.853 220.474,282.183 219.644,281.705 							"/>
						</g>
					</g>
					<g>
						<path style="fill:#FFFFFF;" d="M217.85,272.532h6.42l4.413,2.549v3.404l-4.413,2.548h-6.42l-4.413-2.548v-3.404
							L217.85,272.532L217.85,272.532z M217.754,272.175l-4.675,2.699v3.817l4.675,2.699h6.611l4.676-2.699v-3.817l-4.676-2.699
							H217.754L217.754,272.175z"/>
						<polygon style="fill:#E0DEDC;" points="224.366,281.391 217.754,281.391 213.626,339.464 215.916,352.48 226.206,352.48 
							227.315,339.286 						"/>
						<polygon style="fill:#B5AFA7;" points="233.479,342.339 233.479,348.279 229.74,338.795 229.042,278.691 229.042,274.874 
													"/>
						<polygon style="fill:#E0DEDC;" points="208.642,342.339 208.642,348.279 212.38,338.795 213.079,278.691 213.079,274.874 
													"/>
						<polygon style="fill:#D1D1D1;" points="229.042,278.691 224.366,281.391 226.206,352.48 233.479,348.279 						"/>
						<polygon style="fill:#F4EFE9;" points="213.079,278.691 217.754,281.391 215.916,352.48 208.642,348.279 						"/>
					</g>
				</g>
			</g>
		</g>
		<g>
			<g>
				<path style="opacity:0.3;" d="M402.94,354.949L208.136,242.463l13.02-7.51L415.954,347.42L402.94,354.949z"/>
				<polygon style="fill:#D1D1D1;" points="402.94,199.994 396.039,273.31 402.94,335.139 411.748,330.037 411.752,194.903 				"/>
				<polygon style="fill:#FFFFFF;" points="220.365,85.316 320.579,199.126 394.935,186.119 403.743,181.023 229.174,80.236 				"/>
				<polygon style="fill:#E6E1DD;" points="394.935,186.119 394.262,194.977 402.94,199.994 411.752,194.903 403.743,181.023 				
					"/>
				<polygon style="fill:#F4EFE9;" points="394.935,186.119 402.94,199.994 402.94,335.139 394.932,339.736 220.352,238.957 
					212.349,225.081 212.349,89.948 220.365,85.316 				"/>
				<polygon style="fill:#574943;" points="222.429,236.9 215.155,224.325 215.155,91.57 220.365,88.564 228.403,93.211 
					266.429,138.848 370.591,175.3 392.867,188.167 400.125,200.743 400.125,333.486 394.935,336.498 370.591,322.445 
					272.343,243.039 228.395,240.342 				"/>
				<g>
					<polygon style="fill:#403531;" points="388.54,247.313 393.689,256.225 393.689,268.225 388.535,271.211 381.24,267 
						376.087,258.072 376.095,246.07 381.24,243.1 					"/>
					<path style="fill:#A39685;" d="M389.318,256.33v6.762l-2.611,1.496l-3.661-2.117l-2.576-4.482v-6.77l2.584-1.502l3.653,2.123
						L389.318,256.33L389.318,256.33z M389.79,256.379l-2.877-4.973l-4.05-2.348l-2.873,1.654v7.215l2.873,4.975l4.054,2.348
						l2.873-1.666V256.379L389.79,256.379z"/>
				</g>
				<polygon style="fill:#362C29;" points="219.822,157.932 218.008,158.989 218.003,162.568 220.181,166.342 223.283,168.135 
					225.115,167.063 222.015,165.281 219.867,161.495 				"/>
				<polygon style="fill:#7DD2E3;" points="223.271,159.523 220.184,157.73 219.829,157.932 219.822,157.932 219.867,161.495 
					222.015,165.281 225.115,167.063 225.478,166.872 225.465,163.3 				"/>
				<polygon style="fill:#275C78;" points="228.395,240.342 228.403,93.211 370.591,175.3 370.591,322.445 				"/>
			</g>
			<g>
				<polygon style="fill:#377691;" points="231.397,180.997 231.393,235.26 367.595,313.902 367.595,259.633 				"/>
				<g>
					<polygon style="fill:#FA5C52;" points="236.71,228.482 233.818,226.813 233.818,206.244 236.71,207.913 					"/>
					<polygon style="fill:#FA5C52;" points="240.819,220.147 237.925,218.482 237.925,208.618 240.819,210.294 					"/>
					<polygon style="fill:#FA5C52;" points="244.928,214.216 242.036,212.544 242.036,211 244.928,212.673 					"/>
					<polygon style="fill:#CFDB77;" points="249.037,210.294 246.144,208.618 246.144,213.378 249.037,215.047 					"/>
					<polygon style="fill:#CFDB77;" points="253.147,205.815 250.253,204.142 250.253,215.756 253.147,217.425 					"/>
					<polygon style="fill:#CFDB77;" points="257.253,200.591 254.362,198.919 254.362,218.135 257.253,219.804 					"/>
					<polygon style="fill:#CFDB77;" points="261.364,213.445 258.472,211.776 258.472,220.512 261.364,222.181 					"/>
					<polygon style="fill:#CFDB77;" points="265.475,221.824 262.581,220.147 262.581,222.89 265.475,224.564 					"/>
					<polygon style="fill:#FA5C52;" points="269.58,229.316 266.688,227.65 266.688,225.273 269.58,226.938 					"/>
					<polygon style="fill:#FA5C52;" points="273.691,237.996 270.798,236.326 270.798,227.65 273.691,229.316 					"/>
					<polygon style="fill:#FA5C52;" points="277.801,260.305 274.907,258.637 274.907,230.027 277.801,231.697 					"/>
					<polygon style="fill:#FA5C52;" points="281.908,251.703 279.016,250.037 279.016,232.406 281.908,234.076 					"/>
					<polygon style="fill:#FA5C52;" points="286.018,247.512 283.126,245.838 283.126,234.781 286.018,236.451 					"/>
					<polygon style="fill:#FA5C52;" points="290.128,243.734 287.235,242.061 287.235,237.16 290.128,238.834 					"/>
					<polygon style="fill:#FA5C52;" points="294.234,243.662 291.342,241.988 291.342,239.537 294.234,241.211 					"/>
					<polygon style="fill:#CFDB77;" points="298.343,240.375 295.451,238.705 295.451,241.916 298.343,243.59 					"/>
					<polygon style="fill:#CFDB77;" points="302.453,237.16 299.56,235.492 299.56,244.293 302.453,245.967 					"/>
					<polygon style="fill:#CFDB77;" points="306.563,241.285 303.669,239.609 303.669,246.676 306.563,248.346 					"/>
					<polygon style="fill:#CFDB77;" points="310.669,248.346 307.779,246.676 307.779,249.051 310.669,250.723 					"/>
					<polygon style="fill:#CFDB77;" points="314.781,246.002 311.889,244.332 311.889,251.43 314.781,253.105 					"/>
					<polygon style="fill:#CFDB77;" points="318.895,242.436 315.998,240.768 315.998,253.811 318.895,255.48 					"/>
					<polygon style="fill:#CFDB77;" points="322.996,246.002 320.103,244.332 320.103,256.19 322.996,257.853 					"/>
					<polygon style="fill:#CFDB77;" points="327.107,240.375 324.215,238.705 324.215,258.568 327.107,260.236 					"/>
					<polygon style="fill:#CFDB77;" points="331.217,246.803 328.324,245.129 328.324,260.945 331.217,262.615 					"/>
					<polygon style="fill:#CFDB77;" points="335.322,257.148 332.43,255.48 332.43,263.324 335.322,264.992 					"/>
					<polygon style="fill:#FA5C52;" points="339.432,272.275 336.539,270.602 336.539,265.701 339.432,267.369 					"/>
					<polygon style="fill:#FA5C52;" points="343.545,280.244 340.648,278.57 340.648,268.084 343.545,269.748 					"/>
					<polygon style="fill:#FA5C52;" points="347.65,274.58 344.758,272.912 344.758,270.457 347.65,272.125 					"/>
					<polygon style="fill:#CFDB77;" points="351.76,272.125 348.867,270.457 348.867,272.832 351.76,274.508 					"/>
					<polygon style="fill:#CFDB77;" points="355.869,268.914 352.977,267.24 352.977,275.211 355.869,276.885 					"/>
					<polygon style="fill:#CFDB77;" points="359.978,265.828 357.085,264.156 357.085,277.594 359.978,279.262 					"/>
					<polygon style="fill:#CFDB77;" points="364.088,259.529 361.194,257.853 361.194,279.971 364.088,281.643 					"/>
					<polygon style="fill:#8CCCCB;" points="233.071,205.409 233.071,206.217 364.995,282.383 364.995,281.574 					"/>
				</g>
			</g>
			<g>
				<g>
					<polygon style="fill:#CFDB77;" points="246.546,131.047 242.325,133.484 242.325,140.377 246.546,147.683 266.576,159.246 
						270.797,156.814 270.797,149.917 266.576,142.615 					"/>
					<g>
						<path style="fill:#FFFFFF;" d="M253.31,146.273l-1.013,0.575l-3.909-2.257v-8.134l3.909,2.258l1.013,1.743v2.013l-0.669,0.376
							l0.669,1.159V146.273z M252.35,141.454v-1.074l-0.447-0.785l-2.555-1.475v2.461l2.261,1.306L252.35,141.454z M252.35,145.257
							v-1.332l-0.424-0.748l-2.578-1.489v2.349l2.566,1.482L252.35,145.257z"/>
						<path style="fill:#FFFFFF;" d="M260.072,150.188l-1.004,0.569l-3.672-2.12l-1.004-1.729v-6.985l0.96,0.554v6.509l0.44,0.77
							l2.893,1.671l0.428-0.256v-6.523l0.959,0.554V150.188z"/>
						<path style="fill:#FFFFFF;" d="M266.253,146.771l-2.051,2.923v4.028l-0.96-0.554v-4.036l-2.049-5.282l1.09,0.629l1.435,3.686
							l1.427-2.034L266.253,146.771z"/>
					</g>
				</g>
				<g>
					<polygon style="fill:#FA5C52;" points="246.546,152.221 242.325,154.653 242.325,161.55 246.546,168.852 266.576,180.419 
						270.797,177.983 270.797,171.094 266.576,163.788 					"/>
					<g>
						<path style="fill:#FFFFFF;" d="M252.479,166.988l-1.004,0.569l-3.195-1.845l-1.004-1.729l0.684-0.396l0.714,1.244l2.419,1.396
							l0.426-0.257v-1.347l-0.441-0.765l-2.801-1.617l-1.001-1.727v-2.369l1.004-0.569l3.195,1.845l1.004,1.729l-0.685,0.395
							l-0.714-1.244l-2.419-1.396l-0.426,0.256v1.431l0.438,0.771l2.801,1.617l1.004,1.739V166.988z"/>
						<path style="fill:#FFFFFF;" d="M257.112,170.811l-3.681-2.125v-8.134l3.681,2.125v1.108l-2.721-1.571v2.298l2.077,1.2v1.108
							l-2.077-1.2v2.511l2.721,1.571V170.811z"/>
						<path style="fill:#FFFFFF;" d="M261.727,173.476l-3.522-2.034v-8.134l0.96,0.554v7.026l2.563,1.48V173.476z"/>
						<path style="fill:#FFFFFF;" d="M266.314,176.124l-3.523-2.034v-8.134l0.96,0.554v7.026l2.563,1.479V176.124z"/>
					</g>
				</g>
			</g>
			<g>
				<polygon style="fill:#377691;" points="367.408,249.816 284.358,201.866 284.358,135.176 367.408,183.121 				"/>
				<g>
					<polygon style="fill:#B4CED6;" points="364.344,241.795 364.234,241.727 364.234,187.051 287.702,142.868 287.702,142.727 
						364.344,186.98 					"/>
					<polygon style="fill:#B4CED6;" points="359.545,239.016 359.424,238.955 359.424,184.201 359.545,184.271 					"/>
					<polygon style="fill:#B4CED6;" points="354.738,236.248 354.613,236.174 354.613,181.429 354.738,181.491 					"/>
					<polygon style="fill:#B4CED6;" points="349.931,233.471 349.81,233.402 349.81,178.661 349.931,178.727 					"/>
					<polygon style="fill:#B4CED6;" points="345.124,230.697 345.011,230.631 345.011,175.881 345.124,175.947 					"/>
					<polygon style="fill:#B4CED6;" points="340.329,227.92 340.212,227.854 340.212,173.113 340.329,173.176 					"/>
					<polygon style="fill:#B4CED6;" points="335.519,225.147 335.401,225.079 335.401,170.334 335.519,170.393 					"/>
					<polygon style="fill:#B4CED6;" points="330.711,222.373 330.591,222.307 330.591,167.562 330.711,167.628 					"/>
					<polygon style="fill:#B4CED6;" points="325.903,219.6 325.79,219.53 325.79,164.778 325.903,164.852 					"/>
					<polygon style="fill:#B4CED6;" points="321.104,216.829 320.976,216.759 320.976,162.01 321.104,162.077 					"/>
					<polygon style="fill:#B4CED6;" points="316.297,214.041 316.173,213.979 316.173,159.238 316.297,159.309 					"/>
					<polygon style="fill:#B4CED6;" points="311.489,211.277 311.372,211.215 311.372,156.458 311.489,156.529 					"/>
					<polygon style="fill:#B4CED6;" points="306.688,208.497 306.566,208.427 306.566,153.683 306.688,153.753 					"/>
					<polygon style="fill:#B4CED6;" points="301.885,205.726 301.76,205.659 301.76,150.907 301.885,150.977 					"/>
					<polygon style="fill:#B4CED6;" points="297.075,202.958 296.958,202.887 296.958,148.139 297.075,148.209 					"/>
					<polygon style="fill:#B4CED6;" points="292.271,200.189 292.151,200.107 292.151,145.367 292.271,145.433 					"/>
					<polygon style="fill:#B4CED6;" points="364.29,192.629 287.702,148.419 287.702,148.271 364.29,192.494 					"/>
					<polygon style="fill:#B4CED6;" points="364.29,198.181 287.702,153.955 287.702,153.827 364.29,198.045 					"/>
					<polygon style="fill:#B4CED6;" points="364.29,203.725 287.702,159.511 287.702,159.371 364.29,203.593 					"/>
					<polygon style="fill:#B4CED6;" points="364.29,209.273 287.702,165.055 287.702,164.922 364.29,209.136 					"/>
					<polygon style="fill:#B4CED6;" points="364.29,214.821 287.702,170.602 287.702,170.462 364.29,214.688 					"/>
					<polygon style="fill:#B4CED6;" points="364.29,220.374 287.702,176.162 287.702,176.014 364.29,220.236 					"/>
					<polygon style="fill:#B4CED6;" points="364.29,225.919 287.702,181.71 287.702,181.565 364.29,225.781 					"/>
					<polygon style="fill:#B4CED6;" points="364.29,231.469 287.702,187.254 287.702,187.109 364.29,231.334 					"/>
					<polygon style="fill:#B4CED6;" points="364.29,237.023 287.702,192.802 287.702,192.669 364.29,236.877 					"/>
				</g>
				<polygon style="fill:#428AA8;" points="287.702,197.488 287.702,141.823 286.765,141.281 286.765,198.03 364.672,243.016 
					364.672,241.932 				"/>
				<g>
					<polygon style="fill:#FA5C52;" points="315.427,189.145 314.189,186.997 312.438,185.975 311.195,186.696 311.195,188.723 
						312.438,190.868 314.189,191.881 315.427,191.164 					"/>
					<polygon style="fill:#FA5C52;" points="325.693,196.899 324.461,194.743 322.707,193.733 321.467,194.451 321.467,196.478 
						322.707,198.626 324.461,199.64 325.693,198.919 					"/>
					<polygon style="fill:#FA5C52;" points="349.366,201.823 348.126,199.671 346.372,198.661 345.128,199.378 345.128,201.398 
						346.372,203.546 348.126,204.556 349.366,203.842 					"/>
					<polygon style="fill:#FA5C52;" points="355.193,199.46 353.951,197.309 352.195,196.302 350.96,197.016 350.96,199.043 
						352.195,201.191 353.951,202.208 355.193,201.48 					"/>
					<polygon style="fill:#FA5C52;" points="364.036,201.289 362.496,198.606 360.321,197.359 358.777,198.255 358.777,200.755 
						360.321,203.433 362.496,204.688 364.036,203.799 					"/>
					<polygon style="fill:#FA5C52;" points="287.784,179.874 287.618,178.681 313.235,188.177 313.308,188.244 323.525,196.084 
						347.221,200.941 352.879,198.517 361.265,200.412 361.546,201.64 353.358,199.784 347.712,202.208 323.604,197.269 
						323.487,197.18 313.235,189.316 					"/>
				</g>
				<g>
					<polygon style="fill:#CFDB77;" points="364.036,191.02 362.496,188.35 360.321,187.086 358.777,187.983 358.777,190.501 
						360.321,193.165 362.496,194.419 364.036,193.53 					"/>
					<polygon style="fill:#CFDB77;" points="347.985,187.476 346.745,185.328 344.991,184.318 343.751,185.035 343.751,187.055 
						344.991,189.203 346.745,190.224 347.985,189.503 					"/>
					<polygon style="fill:#CFDB77;" points="333.689,190.322 332.453,188.177 330.691,187.172 329.459,187.885 329.459,189.909 
						330.691,192.053 332.453,193.063 333.689,192.349 					"/>
					<polygon style="fill:#CFDB77;" points="317.171,181.546 315.934,179.402 314.181,178.392 312.939,179.109 312.939,181.129 
						314.181,183.277 315.934,184.291 317.171,183.578 					"/>
					<polygon style="fill:#CFDB77;" points="306.179,178.532 304.94,176.376 303.186,175.367 301.946,176.08 301.946,178.111 
						303.186,180.26 304.94,181.27 306.179,180.556 					"/>
					<polygon style="fill:#CFDB77;" points="304.112,178.922 303.992,178.821 287.586,164.915 287.81,163.951 304.095,177.768 
						315.023,180.626 331.619,189.659 345.697,186.458 361.265,190.143 361.537,191.367 346.118,187.714 331.931,190.941 
						315.107,181.78 					"/>
				</g>
			</g>
		</g>
		<g>
			<path style="opacity:0.3;" d="M385.475,340.508l-33.511-0.09l-8.575,4.923l-12.023-6.984l0.007-1.794l-3.545-2.049
				l-55.297-32.117l-5.01,2.876l-3.557,6.125l-0.02,5.78l55.293,32.124l3.54,2.059l1.556-0.896l5.04,2.925l-1.133,0.653
				l-0.06,19.356l-0.016,10.225l23.663,13.741l33.505,0.08l23.741-13.623l0.013-10.222l0.046-19.344L385.475,340.508z
				 M355.411,382.186l-18.635-10.827l0.017-6.248l18.673-10.725l26.422-0.006l18.629,10.815l-0.017,6.322l-18.69,10.729
				L355.411,382.186z"/>
			<g>
				<polygon style="fill:#CC934C;" points="319.255,340.46 322.821,334.339 327.827,331.464 331.372,333.511 331.352,339.295 
					327.788,345.425 322.777,348.31 319.237,346.25 				"/>
				<polygon style="fill:#FBE979;" points="322.821,334.339 327.827,331.464 272.53,299.346 267.521,302.222 322.149,334.422 				
					"/>
				<polygon style="fill:#E3BD5E;" points="319.255,340.46 322.821,334.339 267.521,302.222 263.964,308.344 318.616,340.739 				
					"/>
				<polygon style="fill:#D6A950;" points="319.237,346.25 319.255,340.46 263.964,308.344 263.944,314.126 				"/>
			</g>
			<g>
				<polygon style="fill:#FFFFFF;" points="337.649,350.4 340.564,345.39 344.665,343.032 347.563,344.717 347.554,349.44 
					344.645,354.462 340.539,356.811 337.642,355.138 				"/>
				<polygon style="fill:#FFFFFF;" points="342.905,347.13 344.665,343.032 327.681,333.163 323.566,335.52 340.019,345.458 				"/>
				<polygon style="fill:#F4EFE9;" points="337.649,350.4 340.564,345.39 323.566,335.52 320.659,340.537 337.13,350.628 				"/>
				<polygon style="fill:#D1D1D1;" points="337.642,355.138 337.649,350.4 320.659,340.537 320.644,345.271 				"/>
			</g>
			<g>
				<polygon style="fill:#CC934C;" points="338.581,350.587 355.845,340.896 355.466,351.334 336.306,362.34 336.258,352.984 				
					"/>
				<polygon style="fill:#D6A950;" points="366.138,340.409 381.907,342.408 381.888,351.33 355.466,351.334 355.507,342.341 				
					"/>
				<polygon style="fill:#E3BD5E;" points="381.907,342.408 405.989,352.977 405.552,365.066 381.888,351.33 				"/>
				<g>
					<polygon style="opacity:0.5;fill:#5C74AD;" points="336.8,356.359 336.786,360.301 355.477,349.57 381.879,349.636 
						400.509,360.456 400.529,356.522 381.899,345.706 355.503,345.631 					"/>
					<polygon style="opacity:0.5;fill:#A39685;" points="333.428,369.667 336.8,356.359 355.503,345.631 381.899,345.706 
						400.529,356.522 403.43,370.022 381.804,382.495 355.402,382.428 					"/>
				</g>
				<path style="fill:#FBE979;" d="M385.351,384.165l23.736-13.615l0.046-19.344l-23.658-13.751l-33.511-0.089l-23.724,13.625
					l-0.06,19.356l23.664,13.731L385.351,384.165z M336.776,368.309l0.037-15.244l18.693-10.724l26.4,0.067l18.632,10.819
					l-0.039,15.241l-18.69,10.727l-26.398-0.061L336.776,368.309z"/>
				<polygon style="fill:#CC934C;" points="385.351,384.165 409.087,370.55 409.074,380.771 385.333,394.394 383.372,386.742 				
					"/>
				<polygon style="fill:#D6A950;" points="351.845,384.079 385.351,384.165 385.333,394.394 351.828,394.314 349.079,386.028 				
					"/>
				<polygon style="fill:#E3BD5E;" points="328.181,370.348 351.845,384.079 351.828,394.314 328.165,380.57 				"/>
			</g>
		</g>
	</g>
</g>
</svg>
